<svg xmlns="http://www.w3.org/2000/svg" width="1180" height="450" viewBox="0 0 1180 450" role="img" aria-labelledby="title desc">
<title id="title">CommonsenseQA geometry controls across evaluation ranks</title>
<desc id="desc">Held-out explained variance, target-versus-control differences, and between-minus-within subspace distance with problem-bootstrap 95 percent confidence intervals.</desc>
<rect width="100%" height="100%" fill="white"/>
<g font-family="DejaVu Sans, Arial, sans-serif" fill="#27313B">
<text x="590" y="28" text-anchor="middle" font-size="20" font-weight="700">CommonsenseQA geometry controls across rank</text>
<text x="590" y="53" text-anchor="middle" font-size="12" fill="#707A86">Qwen2.5-Math-1.5B, block 0; means and problem-bootstrap 95% CIs</text>
<text x="82.00" y="76" font-size="14" font-weight="700">A  Held-out explained variance</text>
<line x1="82.00" y1="362.00" x2="390.00" y2="362.00" stroke="#E7EBEF" stroke-width="1"/>
<text x="73.00" y="366.00" text-anchor="end" font-size="11">0.00</text>
<line x1="82.00" y1="296.50" x2="390.00" y2="296.50" stroke="#E7EBEF" stroke-width="1"/>
<text x="73.00" y="300.50" text-anchor="end" font-size="11">0.20</text>
<line x1="82.00" y1="231.00" x2="390.00" y2="231.00" stroke="#E7EBEF" stroke-width="1"/>
<text x="73.00" y="235.00" text-anchor="end" font-size="11">0.40</text>
<line x1="82.00" y1="165.50" x2="390.00" y2="165.50" stroke="#E7EBEF" stroke-width="1"/>
<text x="73.00" y="169.50" text-anchor="end" font-size="11">0.60</text>
<line x1="82.00" y1="100.00" x2="390.00" y2="100.00" stroke="#E7EBEF" stroke-width="1"/>
<text x="73.00" y="104.00" text-anchor="end" font-size="11">0.80</text>
<line x1="82.00" y1="362.00" x2="390.00" y2="362.00" stroke="#27313B" stroke-width="1"/>
<line x1="82.00" y1="100.00" x2="82.00" y2="362.00" stroke="#27313B" stroke-width="1"/>
<line x1="390.00" y1="100.00" x2="390.00" y2="362.00" stroke="#707A86" stroke-width="1" stroke-dasharray="2 3"/>
<line x1="82.00" y1="362.00" x2="82.00" y2="366.00" stroke="#27313B" stroke-width="1"/>
<text x="82.00" y="382.00" text-anchor="middle" font-size="11">1</text>
<line x1="133.33" y1="362.00" x2="133.33" y2="366.00" stroke="#27313B" stroke-width="1"/>
<text x="133.33" y="382.00" text-anchor="middle" font-size="11">2</text>
<line x1="184.67" y1="362.00" x2="184.67" y2="366.00" stroke="#27313B" stroke-width="1"/>
<text x="184.67" y="382.00" text-anchor="middle" font-size="11">4</text>
<line x1="236.00" y1="362.00" x2="236.00" y2="366.00" stroke="#27313B" stroke-width="1"/>
<text x="236.00" y="382.00" text-anchor="middle" font-size="11">8</text>
<line x1="287.33" y1="362.00" x2="287.33" y2="366.00" stroke="#27313B" stroke-width="1"/>
<text x="287.33" y="382.00" text-anchor="middle" font-size="11">16</text>
<line x1="338.67" y1="362.00" x2="338.67" y2="366.00" stroke="#27313B" stroke-width="1"/>
<text x="338.67" y="382.00" text-anchor="middle" font-size="11">32</text>
<line x1="390.00" y1="362.00" x2="390.00" y2="366.00" stroke="#27313B" stroke-width="1"/>
<text x="390.00" y="382.00" text-anchor="middle" font-size="11">64</text>
<text x="236.00" y="407.00" text-anchor="middle" font-size="12">Rank</text>
<text x="25.00" y="231.00" text-anchor="middle" font-size="12" transform="rotate(-90 25.00 231.00)">Held-out EV</text>
<line x1="92.00" y1="120.00" x2="112.00" y2="120.00" stroke="#2F6B9A" stroke-width="1.8"/>
<circle cx="102.00" cy="120.00" r="4" fill="white" stroke="#2F6B9A" stroke-width="1.8"/>
<text x="122.00" y="124.00" font-size="11">Target context</text>
<line x1="82.00" y1="323.56" x2="82.00" y2="326.51" stroke="#2F6B9A" stroke-width="1"/>
<line x1="79.00" y1="323.56" x2="85.00" y2="323.56" stroke="#2F6B9A" stroke-width="1"/>
<line x1="79.00" y1="326.51" x2="85.00" y2="326.51" stroke="#2F6B9A" stroke-width="1"/>
<line x1="133.33" y1="301.15" x2="133.33" y2="304.49" stroke="#2F6B9A" stroke-width="1"/>
<line x1="130.33" y1="301.15" x2="136.33" y2="301.15" stroke="#2F6B9A" stroke-width="1"/>
<line x1="130.33" y1="304.49" x2="136.33" y2="304.49" stroke="#2F6B9A" stroke-width="1"/>
<line x1="184.67" y1="272.44" x2="184.67" y2="276.62" stroke="#2F6B9A" stroke-width="1"/>
<line x1="181.67" y1="272.44" x2="187.67" y2="272.44" stroke="#2F6B9A" stroke-width="1"/>
<line x1="181.67" y1="276.62" x2="187.67" y2="276.62" stroke="#2F6B9A" stroke-width="1"/>
<line x1="236.00" y1="241.27" x2="236.00" y2="246.33" stroke="#2F6B9A" stroke-width="1"/>
<line x1="233.00" y1="241.27" x2="239.00" y2="241.27" stroke="#2F6B9A" stroke-width="1"/>
<line x1="233.00" y1="246.33" x2="239.00" y2="246.33" stroke="#2F6B9A" stroke-width="1"/>
<line x1="287.33" y1="211.16" x2="287.33" y2="216.56" stroke="#2F6B9A" stroke-width="1"/>
<line x1="284.33" y1="211.16" x2="290.33" y2="211.16" stroke="#2F6B9A" stroke-width="1"/>
<line x1="284.33" y1="216.56" x2="290.33" y2="216.56" stroke="#2F6B9A" stroke-width="1"/>
<line x1="338.67" y1="181.68" x2="338.67" y2="187.21" stroke="#2F6B9A" stroke-width="1"/>
<line x1="335.67" y1="181.68" x2="341.67" y2="181.68" stroke="#2F6B9A" stroke-width="1"/>
<line x1="335.67" y1="187.21" x2="341.67" y2="187.21" stroke="#2F6B9A" stroke-width="1"/>
<line x1="390.00" y1="151.06" x2="390.00" y2="155.70" stroke="#2F6B9A" stroke-width="1"/>
<line x1="387.00" y1="151.06" x2="393.00" y2="151.06" stroke="#2F6B9A" stroke-width="1"/>
<line x1="387.00" y1="155.70" x2="393.00" y2="155.70" stroke="#2F6B9A" stroke-width="1"/>
<polyline points="82.00,325.06 133.33,302.83 184.67,274.43 236.00,243.78 287.33,213.81 338.67,184.45 390.00,153.42" fill="none" stroke="#2F6B9A" stroke-width="1.8"/>
<circle cx="82.00" cy="325.06" r="4" fill="white" stroke="#2F6B9A" stroke-width="1.8"/>
<circle cx="133.33" cy="302.83" r="4" fill="white" stroke="#2F6B9A" stroke-width="1.8"/>
<circle cx="184.67" cy="274.43" r="4" fill="white" stroke="#2F6B9A" stroke-width="1.8"/>
<circle cx="236.00" cy="243.78" r="4" fill="white" stroke="#2F6B9A" stroke-width="1.8"/>
<circle cx="287.33" cy="213.81" r="4" fill="white" stroke="#2F6B9A" stroke-width="1.8"/>
<circle cx="338.67" cy="184.45" r="4" fill="white" stroke="#2F6B9A" stroke-width="1.8"/>
<circle cx="390.00" cy="153.42" r="4" fill="white" stroke="#2F6B9A" stroke-width="1.8"/>
<line x1="92.00" y1="140.00" x2="112.00" y2="140.00" stroke="#3F7D68" stroke-width="1.8" stroke-dasharray="7 4"/>
<rect x="98.00" y="136.00" width="8" height="8" fill="white" stroke="#3F7D68" stroke-width="1.8"/>
<text x="122.00" y="144.00" font-size="11">Matched common</text>
<line x1="82.00" y1="351.82" x2="82.00" y2="353.81" stroke="#3F7D68" stroke-width="1"/>
<line x1="79.00" y1="351.82" x2="85.00" y2="351.82" stroke="#3F7D68" stroke-width="1"/>
<line x1="79.00" y1="353.81" x2="85.00" y2="353.81" stroke="#3F7D68" stroke-width="1"/>
<line x1="133.33" y1="348.21" x2="133.33" y2="350.72" stroke="#3F7D68" stroke-width="1"/>
<line x1="130.33" y1="348.21" x2="136.33" y2="348.21" stroke="#3F7D68" stroke-width="1"/>
<line x1="130.33" y1="350.72" x2="136.33" y2="350.72" stroke="#3F7D68" stroke-width="1"/>
<line x1="184.67" y1="341.79" x2="184.67" y2="345.06" stroke="#3F7D68" stroke-width="1"/>
<line x1="181.67" y1="341.79" x2="187.67" y2="341.79" stroke="#3F7D68" stroke-width="1"/>
<line x1="181.67" y1="345.06" x2="187.67" y2="345.06" stroke="#3F7D68" stroke-width="1"/>
<line x1="236.00" y1="331.34" x2="236.00" y2="335.72" stroke="#3F7D68" stroke-width="1"/>
<line x1="233.00" y1="331.34" x2="239.00" y2="331.34" stroke="#3F7D68" stroke-width="1"/>
<line x1="233.00" y1="335.72" x2="239.00" y2="335.72" stroke="#3F7D68" stroke-width="1"/>
<line x1="287.33" y1="316.69" x2="287.33" y2="322.01" stroke="#3F7D68" stroke-width="1"/>
<line x1="284.33" y1="316.69" x2="290.33" y2="316.69" stroke="#3F7D68" stroke-width="1"/>
<line x1="284.33" y1="322.01" x2="290.33" y2="322.01" stroke="#3F7D68" stroke-width="1"/>
<line x1="338.67" y1="298.30" x2="338.67" y2="304.96" stroke="#3F7D68" stroke-width="1"/>
<line x1="335.67" y1="298.30" x2="341.67" y2="298.30" stroke="#3F7D68" stroke-width="1"/>
<line x1="335.67" y1="304.96" x2="341.67" y2="304.96" stroke="#3F7D68" stroke-width="1"/>
<line x1="390.00" y1="275.53" x2="390.00" y2="283.23" stroke="#3F7D68" stroke-width="1"/>
<line x1="387.00" y1="275.53" x2="393.00" y2="275.53" stroke="#3F7D68" stroke-width="1"/>
<line x1="387.00" y1="283.23" x2="393.00" y2="283.23" stroke="#3F7D68" stroke-width="1"/>
<polyline points="82.00,352.86 133.33,349.51 184.67,343.51 236.00,333.59 287.33,319.38 338.67,301.76 390.00,279.50" fill="none" stroke="#3F7D68" stroke-width="1.8" stroke-dasharray="7 4"/>
<rect x="78.00" y="348.86" width="8" height="8" fill="white" stroke="#3F7D68" stroke-width="1.8"/>
<rect x="129.33" y="345.51" width="8" height="8" fill="white" stroke="#3F7D68" stroke-width="1.8"/>
<rect x="180.67" y="339.51" width="8" height="8" fill="white" stroke="#3F7D68" stroke-width="1.8"/>
<rect x="232.00" y="329.59" width="8" height="8" fill="white" stroke="#3F7D68" stroke-width="1.8"/>
<rect x="283.33" y="315.38" width="8" height="8" fill="white" stroke="#3F7D68" stroke-width="1.8"/>
<rect x="334.67" y="297.76" width="8" height="8" fill="white" stroke="#3F7D68" stroke-width="1.8"/>
<rect x="386.00" y="275.50" width="8" height="8" fill="white" stroke="#3F7D68" stroke-width="1.8"/>
<line x1="92.00" y1="160.00" x2="112.00" y2="160.00" stroke="#D8873A" stroke-width="1.8" stroke-dasharray="2 3"/>
<polygon points="102.00,155.00 107.00,160.00 102.00,165.00 97.00,160.00" fill="white" stroke="#D8873A" stroke-width="1.8"/>
<text x="122.00" y="164.00" font-size="11">Wrong context</text>
<line x1="82.00" y1="346.41" x2="82.00" y2="350.48" stroke="#D8873A" stroke-width="1"/>
<line x1="79.00" y1="346.41" x2="85.00" y2="346.41" stroke="#D8873A" stroke-width="1"/>
<line x1="79.00" y1="350.48" x2="85.00" y2="350.48" stroke="#D8873A" stroke-width="1"/>
<line x1="133.33" y1="338.73" x2="133.33" y2="344.19" stroke="#D8873A" stroke-width="1"/>
<line x1="130.33" y1="338.73" x2="136.33" y2="338.73" stroke="#D8873A" stroke-width="1"/>
<line x1="130.33" y1="344.19" x2="136.33" y2="344.19" stroke="#D8873A" stroke-width="1"/>
<line x1="184.67" y1="329.00" x2="184.67" y2="336.21" stroke="#D8873A" stroke-width="1"/>
<line x1="181.67" y1="329.00" x2="187.67" y2="329.00" stroke="#D8873A" stroke-width="1"/>
<line x1="181.67" y1="336.21" x2="187.67" y2="336.21" stroke="#D8873A" stroke-width="1"/>
<line x1="236.00" y1="317.01" x2="236.00" y2="326.13" stroke="#D8873A" stroke-width="1"/>
<line x1="233.00" y1="317.01" x2="239.00" y2="317.01" stroke="#D8873A" stroke-width="1"/>
<line x1="233.00" y1="326.13" x2="239.00" y2="326.13" stroke="#D8873A" stroke-width="1"/>
<line x1="287.33" y1="304.08" x2="287.33" y2="315.23" stroke="#D8873A" stroke-width="1"/>
<line x1="284.33" y1="304.08" x2="290.33" y2="304.08" stroke="#D8873A" stroke-width="1"/>
<line x1="284.33" y1="315.23" x2="290.33" y2="315.23" stroke="#D8873A" stroke-width="1"/>
<line x1="338.67" y1="290.20" x2="338.67" y2="302.20" stroke="#D8873A" stroke-width="1"/>
<line x1="335.67" y1="290.20" x2="341.67" y2="290.20" stroke="#D8873A" stroke-width="1"/>
<line x1="335.67" y1="302.20" x2="341.67" y2="302.20" stroke="#D8873A" stroke-width="1"/>
<line x1="390.00" y1="273.22" x2="390.00" y2="286.89" stroke="#D8873A" stroke-width="1"/>
<line x1="387.00" y1="273.22" x2="393.00" y2="273.22" stroke="#D8873A" stroke-width="1"/>
<line x1="387.00" y1="286.89" x2="393.00" y2="286.89" stroke="#D8873A" stroke-width="1"/>
<polyline points="82.00,348.51 133.33,341.59 184.67,332.68 236.00,321.82 287.33,309.66 338.67,296.27 390.00,280.04" fill="none" stroke="#D8873A" stroke-width="1.8" stroke-dasharray="2 3"/>
<polygon points="82.00,343.51 87.00,348.51 82.00,353.51 77.00,348.51" fill="white" stroke="#D8873A" stroke-width="1.8"/>
<polygon points="133.33,336.59 138.33,341.59 133.33,346.59 128.33,341.59" fill="white" stroke="#D8873A" stroke-width="1.8"/>
<polygon points="184.67,327.68 189.67,332.68 184.67,337.68 179.67,332.68" fill="white" stroke="#D8873A" stroke-width="1.8"/>
<polygon points="236.00,316.82 241.00,321.82 236.00,326.82 231.00,321.82" fill="white" stroke="#D8873A" stroke-width="1.8"/>
<polygon points="287.33,304.66 292.33,309.66 287.33,314.66 282.33,309.66" fill="white" stroke="#D8873A" stroke-width="1.8"/>
<polygon points="338.67,291.27 343.67,296.27 338.67,301.27 333.67,296.27" fill="white" stroke="#D8873A" stroke-width="1.8"/>
<polygon points="390.00,275.04 395.00,280.04 390.00,285.04 385.00,280.04" fill="white" stroke="#D8873A" stroke-width="1.8"/>
<text x="462.00" y="76" font-size="14" font-weight="700">B  Target-versus-control specificity</text>
<line x1="462.00" y1="362.00" x2="770.00" y2="362.00" stroke="#E7EBEF" stroke-width="1"/>
<text x="453.00" y="366.00" text-anchor="end" font-size="11">0.00</text>
<line x1="462.00" y1="274.67" x2="770.00" y2="274.67" stroke="#E7EBEF" stroke-width="1"/>
<text x="453.00" y="278.67" text-anchor="end" font-size="11">0.20</text>
<line x1="462.00" y1="187.33" x2="770.00" y2="187.33" stroke="#E7EBEF" stroke-width="1"/>
<text x="453.00" y="191.33" text-anchor="end" font-size="11">0.40</text>
<line x1="462.00" y1="100.00" x2="770.00" y2="100.00" stroke="#E7EBEF" stroke-width="1"/>
<text x="453.00" y="104.00" text-anchor="end" font-size="11">0.60</text>
<line x1="462.00" y1="362.00" x2="770.00" y2="362.00" stroke="#27313B" stroke-width="1"/>
<line x1="462.00" y1="100.00" x2="462.00" y2="362.00" stroke="#27313B" stroke-width="1"/>
<line x1="770.00" y1="100.00" x2="770.00" y2="362.00" stroke="#707A86" stroke-width="1" stroke-dasharray="2 3"/>
<text x="765.00" y="113.00" text-anchor="end" font-size="10" fill="#707A86">fixed rank 64</text>
<line x1="462.00" y1="362.00" x2="462.00" y2="366.00" stroke="#27313B" stroke-width="1"/>
<text x="462.00" y="382.00" text-anchor="middle" font-size="11">1</text>
<line x1="513.33" y1="362.00" x2="513.33" y2="366.00" stroke="#27313B" stroke-width="1"/>
<text x="513.33" y="382.00" text-anchor="middle" font-size="11">2</text>
<line x1="564.67" y1="362.00" x2="564.67" y2="366.00" stroke="#27313B" stroke-width="1"/>
<text x="564.67" y="382.00" text-anchor="middle" font-size="11">4</text>
<line x1="616.00" y1="362.00" x2="616.00" y2="366.00" stroke="#27313B" stroke-width="1"/>
<text x="616.00" y="382.00" text-anchor="middle" font-size="11">8</text>
<line x1="667.33" y1="362.00" x2="667.33" y2="366.00" stroke="#27313B" stroke-width="1"/>
<text x="667.33" y="382.00" text-anchor="middle" font-size="11">16</text>
<line x1="718.67" y1="362.00" x2="718.67" y2="366.00" stroke="#27313B" stroke-width="1"/>
<text x="718.67" y="382.00" text-anchor="middle" font-size="11">32</text>
<line x1="770.00" y1="362.00" x2="770.00" y2="366.00" stroke="#27313B" stroke-width="1"/>
<text x="770.00" y="382.00" text-anchor="middle" font-size="11">64</text>
<text x="616.00" y="407.00" text-anchor="middle" font-size="12">Rank</text>
<text x="405.00" y="231.00" text-anchor="middle" font-size="12" transform="rotate(-90 405.00 231.00)">Target minus control EV</text>
<line x1="472.00" y1="120.00" x2="492.00" y2="120.00" stroke="#2F6B9A" stroke-width="1.8"/>
<circle cx="482.00" cy="120.00" r="4" fill="white" stroke="#2F6B9A" stroke-width="1.8"/>
<text x="502.00" y="124.00" font-size="11">Matched common</text>
<line x1="462.00" y1="323.50" x2="462.00" y2="326.42" stroke="#2F6B9A" stroke-width="1"/>
<line x1="459.00" y1="323.50" x2="465.00" y2="323.50" stroke="#2F6B9A" stroke-width="1"/>
<line x1="459.00" y1="326.42" x2="465.00" y2="326.42" stroke="#2F6B9A" stroke-width="1"/>
<line x1="513.33" y1="297.92" x2="513.33" y2="301.60" stroke="#2F6B9A" stroke-width="1"/>
<line x1="510.33" y1="297.92" x2="516.33" y2="297.92" stroke="#2F6B9A" stroke-width="1"/>
<line x1="510.33" y1="301.60" x2="516.33" y2="301.60" stroke="#2F6B9A" stroke-width="1"/>
<line x1="564.67" y1="267.22" x2="564.67" y2="272.66" stroke="#2F6B9A" stroke-width="1"/>
<line x1="561.67" y1="267.22" x2="567.67" y2="267.22" stroke="#2F6B9A" stroke-width="1"/>
<line x1="561.67" y1="272.66" x2="567.67" y2="272.66" stroke="#2F6B9A" stroke-width="1"/>
<line x1="616.00" y1="238.49" x2="616.00" y2="246.06" stroke="#2F6B9A" stroke-width="1"/>
<line x1="613.00" y1="238.49" x2="619.00" y2="238.49" stroke="#2F6B9A" stroke-width="1"/>
<line x1="613.00" y1="246.06" x2="619.00" y2="246.06" stroke="#2F6B9A" stroke-width="1"/>
<line x1="667.33" y1="217.16" x2="667.33" y2="225.29" stroke="#2F6B9A" stroke-width="1"/>
<line x1="664.33" y1="217.16" x2="670.33" y2="217.16" stroke="#2F6B9A" stroke-width="1"/>
<line x1="664.33" y1="225.29" x2="670.33" y2="225.29" stroke="#2F6B9A" stroke-width="1"/>
<line x1="718.67" y1="201.23" x2="718.67" y2="209.74" stroke="#2F6B9A" stroke-width="1"/>
<line x1="715.67" y1="201.23" x2="721.67" y2="201.23" stroke="#2F6B9A" stroke-width="1"/>
<line x1="715.67" y1="209.74" x2="721.67" y2="209.74" stroke="#2F6B9A" stroke-width="1"/>
<line x1="770.00" y1="189.24" x2="770.00" y2="198.35" stroke="#2F6B9A" stroke-width="1"/>
<line x1="767.00" y1="189.24" x2="773.00" y2="189.24" stroke="#2F6B9A" stroke-width="1"/>
<line x1="767.00" y1="198.35" x2="773.00" y2="198.35" stroke="#2F6B9A" stroke-width="1"/>
<polyline points="462.00,324.94 513.33,299.76 564.67,269.90 616.00,242.24 667.33,221.24 718.67,205.58 770.00,193.90" fill="none" stroke="#2F6B9A" stroke-width="1.8"/>
<circle cx="462.00" cy="324.94" r="4" fill="white" stroke="#2F6B9A" stroke-width="1.8"/>
<circle cx="513.33" cy="299.76" r="4" fill="white" stroke="#2F6B9A" stroke-width="1.8"/>
<circle cx="564.67" cy="269.90" r="4" fill="white" stroke="#2F6B9A" stroke-width="1.8"/>
<circle cx="616.00" cy="242.24" r="4" fill="white" stroke="#2F6B9A" stroke-width="1.8"/>
<circle cx="667.33" cy="221.24" r="4" fill="white" stroke="#2F6B9A" stroke-width="1.8"/>
<circle cx="718.67" cy="205.58" r="4" fill="white" stroke="#2F6B9A" stroke-width="1.8"/>
<circle cx="770.00" cy="193.90" r="4" fill="white" stroke="#2F6B9A" stroke-width="1.8"/>
<line x1="472.00" y1="140.00" x2="492.00" y2="140.00" stroke="#D8873A" stroke-width="1.8" stroke-dasharray="7 4"/>
<rect x="478.00" y="136.00" width="8" height="8" fill="white" stroke="#D8873A" stroke-width="1.8"/>
<text x="502.00" y="144.00" font-size="11">Wrong context</text>
<line x1="462.00" y1="328.76" x2="462.00" y2="332.65" stroke="#D8873A" stroke-width="1"/>
<line x1="459.00" y1="328.76" x2="465.00" y2="328.76" stroke="#D8873A" stroke-width="1"/>
<line x1="459.00" y1="332.65" x2="465.00" y2="332.65" stroke="#D8873A" stroke-width="1"/>
<line x1="513.33" y1="307.52" x2="513.33" y2="313.24" stroke="#D8873A" stroke-width="1"/>
<line x1="510.33" y1="307.52" x2="516.33" y2="307.52" stroke="#D8873A" stroke-width="1"/>
<line x1="510.33" y1="313.24" x2="516.33" y2="313.24" stroke="#D8873A" stroke-width="1"/>
<line x1="564.67" y1="280.17" x2="564.67" y2="288.59" stroke="#D8873A" stroke-width="1"/>
<line x1="561.67" y1="280.17" x2="567.67" y2="280.17" stroke="#D8873A" stroke-width="1"/>
<line x1="561.67" y1="288.59" x2="567.67" y2="288.59" stroke="#D8873A" stroke-width="1"/>
<line x1="616.00" y1="252.48" x2="616.00" y2="263.42" stroke="#D8873A" stroke-width="1"/>
<line x1="613.00" y1="252.48" x2="619.00" y2="252.48" stroke="#D8873A" stroke-width="1"/>
<line x1="613.00" y1="263.42" x2="619.00" y2="263.42" stroke="#D8873A" stroke-width="1"/>
<line x1="667.33" y1="227.94" x2="667.33" y2="240.53" stroke="#D8873A" stroke-width="1"/>
<line x1="664.33" y1="227.94" x2="670.33" y2="227.94" stroke="#D8873A" stroke-width="1"/>
<line x1="664.33" y1="240.53" x2="670.33" y2="240.53" stroke="#D8873A" stroke-width="1"/>
<line x1="718.67" y1="206.22" x2="718.67" y2="220.58" stroke="#D8873A" stroke-width="1"/>
<line x1="715.67" y1="206.22" x2="721.67" y2="206.22" stroke="#D8873A" stroke-width="1"/>
<line x1="715.67" y1="220.58" x2="721.67" y2="220.58" stroke="#D8873A" stroke-width="1"/>
<line x1="770.00" y1="185.21" x2="770.00" y2="201.86" stroke="#D8873A" stroke-width="1"/>
<line x1="767.00" y1="185.21" x2="773.00" y2="185.21" stroke="#D8873A" stroke-width="1"/>
<line x1="767.00" y1="201.86" x2="773.00" y2="201.86" stroke="#D8873A" stroke-width="1"/>
<polyline points="462.00,330.73 513.33,310.32 564.67,284.34 616.00,257.95 667.33,234.20 718.67,212.91 770.00,193.18" fill="none" stroke="#D8873A" stroke-width="1.8" stroke-dasharray="7 4"/>
<rect x="458.00" y="326.73" width="8" height="8" fill="white" stroke="#D8873A" stroke-width="1.8"/>
<rect x="509.33" y="306.32" width="8" height="8" fill="white" stroke="#D8873A" stroke-width="1.8"/>
<rect x="560.67" y="280.34" width="8" height="8" fill="white" stroke="#D8873A" stroke-width="1.8"/>
<rect x="612.00" y="253.95" width="8" height="8" fill="white" stroke="#D8873A" stroke-width="1.8"/>
<rect x="663.33" y="230.20" width="8" height="8" fill="white" stroke="#D8873A" stroke-width="1.8"/>
<rect x="714.67" y="208.91" width="8" height="8" fill="white" stroke="#D8873A" stroke-width="1.8"/>
<rect x="766.00" y="189.18" width="8" height="8" fill="white" stroke="#D8873A" stroke-width="1.8"/>
<text x="842.00" y="76" font-size="14" font-weight="700">C  Subspace separation</text>
<line x1="842.00" y1="362.00" x2="1150.00" y2="362.00" stroke="#E7EBEF" stroke-width="1"/>
<text x="833.00" y="366.00" text-anchor="end" font-size="11">0.00</text>
<line x1="842.00" y1="274.67" x2="1150.00" y2="274.67" stroke="#E7EBEF" stroke-width="1"/>
<text x="833.00" y="278.67" text-anchor="end" font-size="11">0.20</text>
<line x1="842.00" y1="187.33" x2="1150.00" y2="187.33" stroke="#E7EBEF" stroke-width="1"/>
<text x="833.00" y="191.33" text-anchor="end" font-size="11">0.40</text>
<line x1="842.00" y1="100.00" x2="1150.00" y2="100.00" stroke="#E7EBEF" stroke-width="1"/>
<text x="833.00" y="104.00" text-anchor="end" font-size="11">0.60</text>
<line x1="842.00" y1="362.00" x2="1150.00" y2="362.00" stroke="#27313B" stroke-width="1"/>
<line x1="842.00" y1="100.00" x2="842.00" y2="362.00" stroke="#27313B" stroke-width="1"/>
<line x1="1150.00" y1="100.00" x2="1150.00" y2="362.00" stroke="#707A86" stroke-width="1" stroke-dasharray="2 3"/>
<line x1="842.00" y1="362.00" x2="842.00" y2="366.00" stroke="#27313B" stroke-width="1"/>
<text x="842.00" y="382.00" text-anchor="middle" font-size="11">1</text>
<line x1="893.33" y1="362.00" x2="893.33" y2="366.00" stroke="#27313B" stroke-width="1"/>
<text x="893.33" y="382.00" text-anchor="middle" font-size="11">2</text>
<line x1="944.67" y1="362.00" x2="944.67" y2="366.00" stroke="#27313B" stroke-width="1"/>
<text x="944.67" y="382.00" text-anchor="middle" font-size="11">4</text>
<line x1="996.00" y1="362.00" x2="996.00" y2="366.00" stroke="#27313B" stroke-width="1"/>
<text x="996.00" y="382.00" text-anchor="middle" font-size="11">8</text>
<line x1="1047.33" y1="362.00" x2="1047.33" y2="366.00" stroke="#27313B" stroke-width="1"/>
<text x="1047.33" y="382.00" text-anchor="middle" font-size="11">16</text>
<line x1="1098.67" y1="362.00" x2="1098.67" y2="366.00" stroke="#27313B" stroke-width="1"/>
<text x="1098.67" y="382.00" text-anchor="middle" font-size="11">32</text>
<line x1="1150.00" y1="362.00" x2="1150.00" y2="366.00" stroke="#27313B" stroke-width="1"/>
<text x="1150.00" y="382.00" text-anchor="middle" font-size="11">64</text>
<text x="996.00" y="407.00" text-anchor="middle" font-size="12">Rank</text>
<text x="785.00" y="231.00" text-anchor="middle" font-size="12" transform="rotate(-90 785.00 231.00)">Between minus within distance</text>
<line x1="972.00" y1="120.00" x2="992.00" y2="120.00" stroke="#3F7D68" stroke-width="1.8"/>
<polygon points="982.00,115.00 987.00,124.50 977.00,124.50" fill="white" stroke="#3F7D68" stroke-width="1.8"/>
<text x="1002.00" y="124.00" font-size="11">Between minus within</text>
<line x1="842.00" y1="164.88" x2="842.00" y2="191.46" stroke="#3F7D68" stroke-width="1"/>
<line x1="839.00" y1="164.88" x2="845.00" y2="164.88" stroke="#3F7D68" stroke-width="1"/>
<line x1="839.00" y1="191.46" x2="845.00" y2="191.46" stroke="#3F7D68" stroke-width="1"/>
<line x1="893.33" y1="162.16" x2="893.33" y2="183.52" stroke="#3F7D68" stroke-width="1"/>
<line x1="890.33" y1="162.16" x2="896.33" y2="162.16" stroke="#3F7D68" stroke-width="1"/>
<line x1="890.33" y1="183.52" x2="896.33" y2="183.52" stroke="#3F7D68" stroke-width="1"/>
<line x1="944.67" y1="168.09" x2="944.67" y2="186.75" stroke="#3F7D68" stroke-width="1"/>
<line x1="941.67" y1="168.09" x2="947.67" y2="168.09" stroke="#3F7D68" stroke-width="1"/>
<line x1="941.67" y1="186.75" x2="947.67" y2="186.75" stroke="#3F7D68" stroke-width="1"/>
<line x1="996.00" y1="187.79" x2="996.00" y2="203.93" stroke="#3F7D68" stroke-width="1"/>
<line x1="993.00" y1="187.79" x2="999.00" y2="187.79" stroke="#3F7D68" stroke-width="1"/>
<line x1="993.00" y1="203.93" x2="999.00" y2="203.93" stroke="#3F7D68" stroke-width="1"/>
<line x1="1047.33" y1="218.46" x2="1047.33" y2="230.98" stroke="#3F7D68" stroke-width="1"/>
<line x1="1044.33" y1="218.46" x2="1050.33" y2="218.46" stroke="#3F7D68" stroke-width="1"/>
<line x1="1044.33" y1="230.98" x2="1050.33" y2="230.98" stroke="#3F7D68" stroke-width="1"/>
<line x1="1098.67" y1="241.41" x2="1098.67" y2="251.03" stroke="#3F7D68" stroke-width="1"/>
<line x1="1095.67" y1="241.41" x2="1101.67" y2="241.41" stroke="#3F7D68" stroke-width="1"/>
<line x1="1095.67" y1="251.03" x2="1101.67" y2="251.03" stroke="#3F7D68" stroke-width="1"/>
<line x1="1150.00" y1="256.76" x2="1150.00" y2="264.69" stroke="#3F7D68" stroke-width="1"/>
<line x1="1147.00" y1="256.76" x2="1153.00" y2="256.76" stroke="#3F7D68" stroke-width="1"/>
<line x1="1147.00" y1="264.69" x2="1153.00" y2="264.69" stroke="#3F7D68" stroke-width="1"/>
<polyline points="842.00,177.90 893.33,172.86 944.67,177.20 996.00,195.98 1047.33,224.43 1098.67,246.28 1150.00,260.49" fill="none" stroke="#3F7D68" stroke-width="1.8"/>
<polygon points="842.00,172.90 847.00,182.40 837.00,182.40" fill="white" stroke="#3F7D68" stroke-width="1.8"/>
<polygon points="893.33,167.86 898.33,177.36 888.33,177.36" fill="white" stroke="#3F7D68" stroke-width="1.8"/>
<polygon points="944.67,172.20 949.67,181.70 939.67,181.70" fill="white" stroke="#3F7D68" stroke-width="1.8"/>
<polygon points="996.00,190.98 1001.00,200.48 991.00,200.48" fill="white" stroke="#3F7D68" stroke-width="1.8"/>
<polygon points="1047.33,219.43 1052.33,228.93 1042.33,228.93" fill="white" stroke="#3F7D68" stroke-width="1.8"/>
<polygon points="1098.67,241.28 1103.67,250.78 1093.67,250.78" fill="white" stroke="#3F7D68" stroke-width="1.8"/>
<polygon points="1150.00,255.49 1155.00,264.99 1145.00,264.99" fill="white" stroke="#3F7D68" stroke-width="1.8"/>
<text x="590" y="437" text-anchor="middle" font-size="10" fill="#707A86">Exact-bin evaluation; n=256 problems per rank; candidate-level 192-fit/64-held-out 4-fold protocol.</text>
</g>
</svg>
