<svg xmlns="http://www.w3.org/2000/svg" width="1180" height="450" viewBox="0 0 1180 450" role="img" aria-labelledby="title desc">
<title id="title">GSM8K geometry controls across evaluation ranks</title>
<desc id="desc">Held-out explained variance, target-versus-control differences, and between-minus-within subspace distance with problem-bootstrap 95 percent confidence intervals.</desc>
<rect width="100%" height="100%" fill="white"/>
<g font-family="DejaVu Sans, Arial, sans-serif" fill="#27313B">
<text x="590" y="28" text-anchor="middle" font-size="20" font-weight="700">GSM8K geometry controls across rank</text>
<text x="590" y="53" text-anchor="middle" font-size="12" fill="#707A86">Qwen2.5-Math-1.5B, block 0; means and problem-bootstrap 95% CIs</text>
<text x="82.00" y="76" font-size="14" font-weight="700">A  Held-out explained variance</text>
<line x1="82.00" y1="362.00" x2="390.00" y2="362.00" stroke="#E7EBEF" stroke-width="1"/>
<text x="73.00" y="366.00" text-anchor="end" font-size="11">0.00</text>
<line x1="82.00" y1="296.50" x2="390.00" y2="296.50" stroke="#E7EBEF" stroke-width="1"/>
<text x="73.00" y="300.50" text-anchor="end" font-size="11">0.20</text>
<line x1="82.00" y1="231.00" x2="390.00" y2="231.00" stroke="#E7EBEF" stroke-width="1"/>
<text x="73.00" y="235.00" text-anchor="end" font-size="11">0.40</text>
<line x1="82.00" y1="165.50" x2="390.00" y2="165.50" stroke="#E7EBEF" stroke-width="1"/>
<text x="73.00" y="169.50" text-anchor="end" font-size="11">0.60</text>
<line x1="82.00" y1="100.00" x2="390.00" y2="100.00" stroke="#E7EBEF" stroke-width="1"/>
<text x="73.00" y="104.00" text-anchor="end" font-size="11">0.80</text>
<line x1="82.00" y1="362.00" x2="390.00" y2="362.00" stroke="#27313B" stroke-width="1"/>
<line x1="82.00" y1="100.00" x2="82.00" y2="362.00" stroke="#27313B" stroke-width="1"/>
<line x1="390.00" y1="100.00" x2="390.00" y2="362.00" stroke="#707A86" stroke-width="1" stroke-dasharray="2 3"/>
<line x1="82.00" y1="362.00" x2="82.00" y2="366.00" stroke="#27313B" stroke-width="1"/>
<text x="82.00" y="382.00" text-anchor="middle" font-size="11">1</text>
<line x1="133.33" y1="362.00" x2="133.33" y2="366.00" stroke="#27313B" stroke-width="1"/>
<text x="133.33" y="382.00" text-anchor="middle" font-size="11">2</text>
<line x1="184.67" y1="362.00" x2="184.67" y2="366.00" stroke="#27313B" stroke-width="1"/>
<text x="184.67" y="382.00" text-anchor="middle" font-size="11">4</text>
<line x1="236.00" y1="362.00" x2="236.00" y2="366.00" stroke="#27313B" stroke-width="1"/>
<text x="236.00" y="382.00" text-anchor="middle" font-size="11">8</text>
<line x1="287.33" y1="362.00" x2="287.33" y2="366.00" stroke="#27313B" stroke-width="1"/>
<text x="287.33" y="382.00" text-anchor="middle" font-size="11">16</text>
<line x1="338.67" y1="362.00" x2="338.67" y2="366.00" stroke="#27313B" stroke-width="1"/>
<text x="338.67" y="382.00" text-anchor="middle" font-size="11">32</text>
<line x1="390.00" y1="362.00" x2="390.00" y2="366.00" stroke="#27313B" stroke-width="1"/>
<text x="390.00" y="382.00" text-anchor="middle" font-size="11">64</text>
<text x="236.00" y="407.00" text-anchor="middle" font-size="12">Rank</text>
<text x="25.00" y="231.00" text-anchor="middle" font-size="12" transform="rotate(-90 25.00 231.00)">Held-out EV</text>
<line x1="92.00" y1="120.00" x2="112.00" y2="120.00" stroke="#2F6B9A" stroke-width="1.8"/>
<circle cx="102.00" cy="120.00" r="4" fill="white" stroke="#2F6B9A" stroke-width="1.8"/>
<text x="122.00" y="124.00" font-size="11">Target context</text>
<line x1="82.00" y1="309.67" x2="82.00" y2="313.84" stroke="#2F6B9A" stroke-width="1"/>
<line x1="79.00" y1="309.67" x2="85.00" y2="309.67" stroke="#2F6B9A" stroke-width="1"/>
<line x1="79.00" y1="313.84" x2="85.00" y2="313.84" stroke="#2F6B9A" stroke-width="1"/>
<line x1="133.33" y1="284.46" x2="133.33" y2="289.39" stroke="#2F6B9A" stroke-width="1"/>
<line x1="130.33" y1="284.46" x2="136.33" y2="284.46" stroke="#2F6B9A" stroke-width="1"/>
<line x1="130.33" y1="289.39" x2="136.33" y2="289.39" stroke="#2F6B9A" stroke-width="1"/>
<line x1="184.67" y1="253.70" x2="184.67" y2="259.54" stroke="#2F6B9A" stroke-width="1"/>
<line x1="181.67" y1="253.70" x2="187.67" y2="253.70" stroke="#2F6B9A" stroke-width="1"/>
<line x1="181.67" y1="259.54" x2="187.67" y2="259.54" stroke="#2F6B9A" stroke-width="1"/>
<line x1="236.00" y1="224.48" x2="236.00" y2="230.09" stroke="#2F6B9A" stroke-width="1"/>
<line x1="233.00" y1="224.48" x2="239.00" y2="224.48" stroke="#2F6B9A" stroke-width="1"/>
<line x1="233.00" y1="230.09" x2="239.00" y2="230.09" stroke="#2F6B9A" stroke-width="1"/>
<line x1="287.33" y1="195.46" x2="287.33" y2="201.15" stroke="#2F6B9A" stroke-width="1"/>
<line x1="284.33" y1="195.46" x2="290.33" y2="195.46" stroke="#2F6B9A" stroke-width="1"/>
<line x1="284.33" y1="201.15" x2="290.33" y2="201.15" stroke="#2F6B9A" stroke-width="1"/>
<line x1="338.67" y1="167.45" x2="338.67" y2="172.66" stroke="#2F6B9A" stroke-width="1"/>
<line x1="335.67" y1="167.45" x2="341.67" y2="167.45" stroke="#2F6B9A" stroke-width="1"/>
<line x1="335.67" y1="172.66" x2="341.67" y2="172.66" stroke="#2F6B9A" stroke-width="1"/>
<line x1="390.00" y1="139.79" x2="390.00" y2="144.14" stroke="#2F6B9A" stroke-width="1"/>
<line x1="387.00" y1="139.79" x2="393.00" y2="139.79" stroke="#2F6B9A" stroke-width="1"/>
<line x1="387.00" y1="144.14" x2="393.00" y2="144.14" stroke="#2F6B9A" stroke-width="1"/>
<polyline points="82.00,311.78 133.33,286.88 184.67,256.65 236.00,227.18 287.33,198.30 338.67,170.04 390.00,141.90" fill="none" stroke="#2F6B9A" stroke-width="1.8"/>
<circle cx="82.00" cy="311.78" r="4" fill="white" stroke="#2F6B9A" stroke-width="1.8"/>
<circle cx="133.33" cy="286.88" r="4" fill="white" stroke="#2F6B9A" stroke-width="1.8"/>
<circle cx="184.67" cy="256.65" r="4" fill="white" stroke="#2F6B9A" stroke-width="1.8"/>
<circle cx="236.00" cy="227.18" r="4" fill="white" stroke="#2F6B9A" stroke-width="1.8"/>
<circle cx="287.33" cy="198.30" r="4" fill="white" stroke="#2F6B9A" stroke-width="1.8"/>
<circle cx="338.67" cy="170.04" r="4" fill="white" stroke="#2F6B9A" stroke-width="1.8"/>
<circle cx="390.00" cy="141.90" r="4" fill="white" stroke="#2F6B9A" stroke-width="1.8"/>
<line x1="92.00" y1="140.00" x2="112.00" y2="140.00" stroke="#3F7D68" stroke-width="1.8" stroke-dasharray="7 4"/>
<rect x="98.00" y="136.00" width="8" height="8" fill="white" stroke="#3F7D68" stroke-width="1.8"/>
<text x="122.00" y="144.00" font-size="11">Matched common</text>
<line x1="82.00" y1="351.80" x2="82.00" y2="353.79" stroke="#3F7D68" stroke-width="1"/>
<line x1="79.00" y1="351.80" x2="85.00" y2="351.80" stroke="#3F7D68" stroke-width="1"/>
<line x1="79.00" y1="353.79" x2="85.00" y2="353.79" stroke="#3F7D68" stroke-width="1"/>
<line x1="133.33" y1="345.04" x2="133.33" y2="348.23" stroke="#3F7D68" stroke-width="1"/>
<line x1="130.33" y1="345.04" x2="136.33" y2="345.04" stroke="#3F7D68" stroke-width="1"/>
<line x1="130.33" y1="348.23" x2="136.33" y2="348.23" stroke="#3F7D68" stroke-width="1"/>
<line x1="184.67" y1="333.13" x2="184.67" y2="337.51" stroke="#3F7D68" stroke-width="1"/>
<line x1="181.67" y1="333.13" x2="187.67" y2="333.13" stroke="#3F7D68" stroke-width="1"/>
<line x1="181.67" y1="337.51" x2="187.67" y2="337.51" stroke="#3F7D68" stroke-width="1"/>
<line x1="236.00" y1="320.42" x2="236.00" y2="326.35" stroke="#3F7D68" stroke-width="1"/>
<line x1="233.00" y1="320.42" x2="239.00" y2="320.42" stroke="#3F7D68" stroke-width="1"/>
<line x1="233.00" y1="326.35" x2="239.00" y2="326.35" stroke="#3F7D68" stroke-width="1"/>
<line x1="287.33" y1="304.41" x2="287.33" y2="311.42" stroke="#3F7D68" stroke-width="1"/>
<line x1="284.33" y1="304.41" x2="290.33" y2="304.41" stroke="#3F7D68" stroke-width="1"/>
<line x1="284.33" y1="311.42" x2="290.33" y2="311.42" stroke="#3F7D68" stroke-width="1"/>
<line x1="338.67" y1="285.82" x2="338.67" y2="294.01" stroke="#3F7D68" stroke-width="1"/>
<line x1="335.67" y1="285.82" x2="341.67" y2="285.82" stroke="#3F7D68" stroke-width="1"/>
<line x1="335.67" y1="294.01" x2="341.67" y2="294.01" stroke="#3F7D68" stroke-width="1"/>
<line x1="390.00" y1="261.82" x2="390.00" y2="271.02" stroke="#3F7D68" stroke-width="1"/>
<line x1="387.00" y1="261.82" x2="393.00" y2="261.82" stroke="#3F7D68" stroke-width="1"/>
<line x1="387.00" y1="271.02" x2="393.00" y2="271.02" stroke="#3F7D68" stroke-width="1"/>
<polyline points="82.00,352.82 133.33,346.67 184.67,335.31 236.00,323.42 287.33,308.00 338.67,289.98 390.00,266.56" fill="none" stroke="#3F7D68" stroke-width="1.8" stroke-dasharray="7 4"/>
<rect x="78.00" y="348.82" width="8" height="8" fill="white" stroke="#3F7D68" stroke-width="1.8"/>
<rect x="129.33" y="342.67" width="8" height="8" fill="white" stroke="#3F7D68" stroke-width="1.8"/>
<rect x="180.67" y="331.31" width="8" height="8" fill="white" stroke="#3F7D68" stroke-width="1.8"/>
<rect x="232.00" y="319.42" width="8" height="8" fill="white" stroke="#3F7D68" stroke-width="1.8"/>
<rect x="283.33" y="304.00" width="8" height="8" fill="white" stroke="#3F7D68" stroke-width="1.8"/>
<rect x="334.67" y="285.98" width="8" height="8" fill="white" stroke="#3F7D68" stroke-width="1.8"/>
<rect x="386.00" y="262.56" width="8" height="8" fill="white" stroke="#3F7D68" stroke-width="1.8"/>
<line x1="92.00" y1="160.00" x2="112.00" y2="160.00" stroke="#D8873A" stroke-width="1.8" stroke-dasharray="2 3"/>
<polygon points="102.00,155.00 107.00,160.00 102.00,165.00 97.00,160.00" fill="white" stroke="#D8873A" stroke-width="1.8"/>
<text x="122.00" y="164.00" font-size="11">Wrong context</text>
<line x1="82.00" y1="342.14" x2="82.00" y2="347.04" stroke="#D8873A" stroke-width="1"/>
<line x1="79.00" y1="342.14" x2="85.00" y2="342.14" stroke="#D8873A" stroke-width="1"/>
<line x1="79.00" y1="347.04" x2="85.00" y2="347.04" stroke="#D8873A" stroke-width="1"/>
<line x1="133.33" y1="333.12" x2="133.33" y2="339.92" stroke="#D8873A" stroke-width="1"/>
<line x1="130.33" y1="333.12" x2="136.33" y2="333.12" stroke="#D8873A" stroke-width="1"/>
<line x1="130.33" y1="339.92" x2="136.33" y2="339.92" stroke="#D8873A" stroke-width="1"/>
<line x1="184.67" y1="321.86" x2="184.67" y2="331.11" stroke="#D8873A" stroke-width="1"/>
<line x1="181.67" y1="321.86" x2="187.67" y2="321.86" stroke="#D8873A" stroke-width="1"/>
<line x1="181.67" y1="331.11" x2="187.67" y2="331.11" stroke="#D8873A" stroke-width="1"/>
<line x1="236.00" y1="311.32" x2="236.00" y2="321.37" stroke="#D8873A" stroke-width="1"/>
<line x1="233.00" y1="311.32" x2="239.00" y2="311.32" stroke="#D8873A" stroke-width="1"/>
<line x1="233.00" y1="321.37" x2="239.00" y2="321.37" stroke="#D8873A" stroke-width="1"/>
<line x1="287.33" y1="299.00" x2="287.33" y2="310.65" stroke="#D8873A" stroke-width="1"/>
<line x1="284.33" y1="299.00" x2="290.33" y2="299.00" stroke="#D8873A" stroke-width="1"/>
<line x1="284.33" y1="310.65" x2="290.33" y2="310.65" stroke="#D8873A" stroke-width="1"/>
<line x1="338.67" y1="285.95" x2="338.67" y2="298.65" stroke="#D8873A" stroke-width="1"/>
<line x1="335.67" y1="285.95" x2="341.67" y2="285.95" stroke="#D8873A" stroke-width="1"/>
<line x1="335.67" y1="298.65" x2="341.67" y2="298.65" stroke="#D8873A" stroke-width="1"/>
<line x1="390.00" y1="270.82" x2="390.00" y2="283.48" stroke="#D8873A" stroke-width="1"/>
<line x1="387.00" y1="270.82" x2="393.00" y2="270.82" stroke="#D8873A" stroke-width="1"/>
<line x1="387.00" y1="283.48" x2="393.00" y2="283.48" stroke="#D8873A" stroke-width="1"/>
<polyline points="82.00,344.65 133.33,336.64 184.67,326.49 236.00,316.46 287.33,305.12 338.67,292.45 390.00,276.95" fill="none" stroke="#D8873A" stroke-width="1.8" stroke-dasharray="2 3"/>
<polygon points="82.00,339.65 87.00,344.65 82.00,349.65 77.00,344.65" fill="white" stroke="#D8873A" stroke-width="1.8"/>
<polygon points="133.33,331.64 138.33,336.64 133.33,341.64 128.33,336.64" fill="white" stroke="#D8873A" stroke-width="1.8"/>
<polygon points="184.67,321.49 189.67,326.49 184.67,331.49 179.67,326.49" fill="white" stroke="#D8873A" stroke-width="1.8"/>
<polygon points="236.00,311.46 241.00,316.46 236.00,321.46 231.00,316.46" fill="white" stroke="#D8873A" stroke-width="1.8"/>
<polygon points="287.33,300.12 292.33,305.12 287.33,310.12 282.33,305.12" fill="white" stroke="#D8873A" stroke-width="1.8"/>
<polygon points="338.67,287.45 343.67,292.45 338.67,297.45 333.67,292.45" fill="white" stroke="#D8873A" stroke-width="1.8"/>
<polygon points="390.00,271.95 395.00,276.95 390.00,281.95 385.00,276.95" fill="white" stroke="#D8873A" stroke-width="1.8"/>
<text x="462.00" y="76" font-size="14" font-weight="700">B  Target-versus-control specificity</text>
<line x1="462.00" y1="362.00" x2="770.00" y2="362.00" stroke="#E7EBEF" stroke-width="1"/>
<text x="453.00" y="366.00" text-anchor="end" font-size="11">0.00</text>
<line x1="462.00" y1="274.67" x2="770.00" y2="274.67" stroke="#E7EBEF" stroke-width="1"/>
<text x="453.00" y="278.67" text-anchor="end" font-size="11">0.20</text>
<line x1="462.00" y1="187.33" x2="770.00" y2="187.33" stroke="#E7EBEF" stroke-width="1"/>
<text x="453.00" y="191.33" text-anchor="end" font-size="11">0.40</text>
<line x1="462.00" y1="100.00" x2="770.00" y2="100.00" stroke="#E7EBEF" stroke-width="1"/>
<text x="453.00" y="104.00" text-anchor="end" font-size="11">0.60</text>
<line x1="462.00" y1="362.00" x2="770.00" y2="362.00" stroke="#27313B" stroke-width="1"/>
<line x1="462.00" y1="100.00" x2="462.00" y2="362.00" stroke="#27313B" stroke-width="1"/>
<line x1="770.00" y1="100.00" x2="770.00" y2="362.00" stroke="#707A86" stroke-width="1" stroke-dasharray="2 3"/>
<text x="765.00" y="113.00" text-anchor="end" font-size="10" fill="#707A86">development-selected rank 64</text>
<line x1="462.00" y1="362.00" x2="462.00" y2="366.00" stroke="#27313B" stroke-width="1"/>
<text x="462.00" y="382.00" text-anchor="middle" font-size="11">1</text>
<line x1="513.33" y1="362.00" x2="513.33" y2="366.00" stroke="#27313B" stroke-width="1"/>
<text x="513.33" y="382.00" text-anchor="middle" font-size="11">2</text>
<line x1="564.67" y1="362.00" x2="564.67" y2="366.00" stroke="#27313B" stroke-width="1"/>
<text x="564.67" y="382.00" text-anchor="middle" font-size="11">4</text>
<line x1="616.00" y1="362.00" x2="616.00" y2="366.00" stroke="#27313B" stroke-width="1"/>
<text x="616.00" y="382.00" text-anchor="middle" font-size="11">8</text>
<line x1="667.33" y1="362.00" x2="667.33" y2="366.00" stroke="#27313B" stroke-width="1"/>
<text x="667.33" y="382.00" text-anchor="middle" font-size="11">16</text>
<line x1="718.67" y1="362.00" x2="718.67" y2="366.00" stroke="#27313B" stroke-width="1"/>
<text x="718.67" y="382.00" text-anchor="middle" font-size="11">32</text>
<line x1="770.00" y1="362.00" x2="770.00" y2="366.00" stroke="#27313B" stroke-width="1"/>
<text x="770.00" y="382.00" text-anchor="middle" font-size="11">64</text>
<text x="616.00" y="407.00" text-anchor="middle" font-size="12">Rank</text>
<text x="405.00" y="231.00" text-anchor="middle" font-size="12" transform="rotate(-90 405.00 231.00)">Target minus control EV</text>
<line x1="472.00" y1="120.00" x2="492.00" y2="120.00" stroke="#2F6B9A" stroke-width="1.8"/>
<circle cx="482.00" cy="120.00" r="4" fill="white" stroke="#2F6B9A" stroke-width="1.8"/>
<text x="502.00" y="124.00" font-size="11">Matched common</text>
<line x1="462.00" y1="304.70" x2="462.00" y2="309.76" stroke="#2F6B9A" stroke-width="1"/>
<line x1="459.00" y1="304.70" x2="465.00" y2="304.70" stroke="#2F6B9A" stroke-width="1"/>
<line x1="459.00" y1="309.76" x2="465.00" y2="309.76" stroke="#2F6B9A" stroke-width="1"/>
<line x1="513.33" y1="279.45" x2="513.33" y2="284.85" stroke="#2F6B9A" stroke-width="1"/>
<line x1="510.33" y1="279.45" x2="516.33" y2="279.45" stroke="#2F6B9A" stroke-width="1"/>
<line x1="510.33" y1="284.85" x2="516.33" y2="284.85" stroke="#2F6B9A" stroke-width="1"/>
<line x1="564.67" y1="254.20" x2="564.67" y2="259.94" stroke="#2F6B9A" stroke-width="1"/>
<line x1="561.67" y1="254.20" x2="567.67" y2="254.20" stroke="#2F6B9A" stroke-width="1"/>
<line x1="561.67" y1="259.94" x2="567.67" y2="259.94" stroke="#2F6B9A" stroke-width="1"/>
<line x1="616.00" y1="230.38" x2="616.00" y2="236.94" stroke="#2F6B9A" stroke-width="1"/>
<line x1="613.00" y1="230.38" x2="619.00" y2="230.38" stroke="#2F6B9A" stroke-width="1"/>
<line x1="613.00" y1="236.94" x2="619.00" y2="236.94" stroke="#2F6B9A" stroke-width="1"/>
<line x1="667.33" y1="211.80" x2="667.33" y2="219.60" stroke="#2F6B9A" stroke-width="1"/>
<line x1="664.33" y1="211.80" x2="670.33" y2="211.80" stroke="#2F6B9A" stroke-width="1"/>
<line x1="664.33" y1="219.60" x2="670.33" y2="219.60" stroke="#2F6B9A" stroke-width="1"/>
<line x1="718.67" y1="197.68" x2="718.67" y2="206.61" stroke="#2F6B9A" stroke-width="1"/>
<line x1="715.67" y1="197.68" x2="721.67" y2="197.68" stroke="#2F6B9A" stroke-width="1"/>
<line x1="715.67" y1="206.61" x2="721.67" y2="206.61" stroke="#2F6B9A" stroke-width="1"/>
<line x1="770.00" y1="190.67" x2="770.00" y2="200.81" stroke="#2F6B9A" stroke-width="1"/>
<line x1="767.00" y1="190.67" x2="773.00" y2="190.67" stroke="#2F6B9A" stroke-width="1"/>
<line x1="767.00" y1="200.81" x2="773.00" y2="200.81" stroke="#2F6B9A" stroke-width="1"/>
<polyline points="462.00,307.28 513.33,282.29 564.67,257.11 616.00,233.68 667.33,215.73 718.67,202.08 770.00,195.78" fill="none" stroke="#2F6B9A" stroke-width="1.8"/>
<circle cx="462.00" cy="307.28" r="4" fill="white" stroke="#2F6B9A" stroke-width="1.8"/>
<circle cx="513.33" cy="282.29" r="4" fill="white" stroke="#2F6B9A" stroke-width="1.8"/>
<circle cx="564.67" cy="257.11" r="4" fill="white" stroke="#2F6B9A" stroke-width="1.8"/>
<circle cx="616.00" cy="233.68" r="4" fill="white" stroke="#2F6B9A" stroke-width="1.8"/>
<circle cx="667.33" cy="215.73" r="4" fill="white" stroke="#2F6B9A" stroke-width="1.8"/>
<circle cx="718.67" cy="202.08" r="4" fill="white" stroke="#2F6B9A" stroke-width="1.8"/>
<circle cx="770.00" cy="195.78" r="4" fill="white" stroke="#2F6B9A" stroke-width="1.8"/>
<line x1="472.00" y1="140.00" x2="492.00" y2="140.00" stroke="#D8873A" stroke-width="1.8" stroke-dasharray="7 4"/>
<rect x="478.00" y="136.00" width="8" height="8" fill="white" stroke="#D8873A" stroke-width="1.8"/>
<text x="502.00" y="144.00" font-size="11">Wrong context</text>
<line x1="462.00" y1="315.69" x2="462.00" y2="320.85" stroke="#D8873A" stroke-width="1"/>
<line x1="459.00" y1="315.69" x2="465.00" y2="315.69" stroke="#D8873A" stroke-width="1"/>
<line x1="459.00" y1="320.85" x2="465.00" y2="320.85" stroke="#D8873A" stroke-width="1"/>
<line x1="513.33" y1="292.26" x2="513.33" y2="298.98" stroke="#D8873A" stroke-width="1"/>
<line x1="510.33" y1="292.26" x2="516.33" y2="292.26" stroke="#D8873A" stroke-width="1"/>
<line x1="510.33" y1="298.98" x2="516.33" y2="298.98" stroke="#D8873A" stroke-width="1"/>
<line x1="564.67" y1="264.62" x2="564.67" y2="273.06" stroke="#D8873A" stroke-width="1"/>
<line x1="561.67" y1="264.62" x2="567.67" y2="264.62" stroke="#D8873A" stroke-width="1"/>
<line x1="561.67" y1="273.06" x2="567.67" y2="273.06" stroke="#D8873A" stroke-width="1"/>
<line x1="616.00" y1="238.00" x2="616.00" y2="248.16" stroke="#D8873A" stroke-width="1"/>
<line x1="613.00" y1="238.00" x2="619.00" y2="238.00" stroke="#D8873A" stroke-width="1"/>
<line x1="613.00" y1="248.16" x2="619.00" y2="248.16" stroke="#D8873A" stroke-width="1"/>
<line x1="667.33" y1="213.49" x2="667.33" y2="225.48" stroke="#D8873A" stroke-width="1"/>
<line x1="664.33" y1="213.49" x2="670.33" y2="213.49" stroke="#D8873A" stroke-width="1"/>
<line x1="664.33" y1="225.48" x2="670.33" y2="225.48" stroke="#D8873A" stroke-width="1"/>
<line x1="718.67" y1="192.20" x2="718.67" y2="205.62" stroke="#D8873A" stroke-width="1"/>
<line x1="715.67" y1="192.20" x2="721.67" y2="192.20" stroke="#D8873A" stroke-width="1"/>
<line x1="715.67" y1="205.62" x2="721.67" y2="205.62" stroke="#D8873A" stroke-width="1"/>
<line x1="770.00" y1="174.45" x2="770.00" y2="189.00" stroke="#D8873A" stroke-width="1"/>
<line x1="767.00" y1="174.45" x2="773.00" y2="174.45" stroke="#D8873A" stroke-width="1"/>
<line x1="767.00" y1="189.00" x2="773.00" y2="189.00" stroke="#D8873A" stroke-width="1"/>
<polyline points="462.00,318.16 513.33,295.65 564.67,268.87 616.00,242.96 667.33,219.57 718.67,198.78 770.00,181.93" fill="none" stroke="#D8873A" stroke-width="1.8" stroke-dasharray="7 4"/>
<rect x="458.00" y="314.16" width="8" height="8" fill="white" stroke="#D8873A" stroke-width="1.8"/>
<rect x="509.33" y="291.65" width="8" height="8" fill="white" stroke="#D8873A" stroke-width="1.8"/>
<rect x="560.67" y="264.87" width="8" height="8" fill="white" stroke="#D8873A" stroke-width="1.8"/>
<rect x="612.00" y="238.96" width="8" height="8" fill="white" stroke="#D8873A" stroke-width="1.8"/>
<rect x="663.33" y="215.57" width="8" height="8" fill="white" stroke="#D8873A" stroke-width="1.8"/>
<rect x="714.67" y="194.78" width="8" height="8" fill="white" stroke="#D8873A" stroke-width="1.8"/>
<rect x="766.00" y="177.93" width="8" height="8" fill="white" stroke="#D8873A" stroke-width="1.8"/>
<text x="842.00" y="76" font-size="14" font-weight="700">C  Subspace separation</text>
<line x1="842.00" y1="362.00" x2="1150.00" y2="362.00" stroke="#E7EBEF" stroke-width="1"/>
<text x="833.00" y="366.00" text-anchor="end" font-size="11">0.00</text>
<line x1="842.00" y1="274.67" x2="1150.00" y2="274.67" stroke="#E7EBEF" stroke-width="1"/>
<text x="833.00" y="278.67" text-anchor="end" font-size="11">0.20</text>
<line x1="842.00" y1="187.33" x2="1150.00" y2="187.33" stroke="#E7EBEF" stroke-width="1"/>
<text x="833.00" y="191.33" text-anchor="end" font-size="11">0.40</text>
<line x1="842.00" y1="100.00" x2="1150.00" y2="100.00" stroke="#E7EBEF" stroke-width="1"/>
<text x="833.00" y="104.00" text-anchor="end" font-size="11">0.60</text>
<line x1="842.00" y1="362.00" x2="1150.00" y2="362.00" stroke="#27313B" stroke-width="1"/>
<line x1="842.00" y1="100.00" x2="842.00" y2="362.00" stroke="#27313B" stroke-width="1"/>
<line x1="1150.00" y1="100.00" x2="1150.00" y2="362.00" stroke="#707A86" stroke-width="1" stroke-dasharray="2 3"/>
<line x1="842.00" y1="362.00" x2="842.00" y2="366.00" stroke="#27313B" stroke-width="1"/>
<text x="842.00" y="382.00" text-anchor="middle" font-size="11">1</text>
<line x1="893.33" y1="362.00" x2="893.33" y2="366.00" stroke="#27313B" stroke-width="1"/>
<text x="893.33" y="382.00" text-anchor="middle" font-size="11">2</text>
<line x1="944.67" y1="362.00" x2="944.67" y2="366.00" stroke="#27313B" stroke-width="1"/>
<text x="944.67" y="382.00" text-anchor="middle" font-size="11">4</text>
<line x1="996.00" y1="362.00" x2="996.00" y2="366.00" stroke="#27313B" stroke-width="1"/>
<text x="996.00" y="382.00" text-anchor="middle" font-size="11">8</text>
<line x1="1047.33" y1="362.00" x2="1047.33" y2="366.00" stroke="#27313B" stroke-width="1"/>
<text x="1047.33" y="382.00" text-anchor="middle" font-size="11">16</text>
<line x1="1098.67" y1="362.00" x2="1098.67" y2="366.00" stroke="#27313B" stroke-width="1"/>
<text x="1098.67" y="382.00" text-anchor="middle" font-size="11">32</text>
<line x1="1150.00" y1="362.00" x2="1150.00" y2="366.00" stroke="#27313B" stroke-width="1"/>
<text x="1150.00" y="382.00" text-anchor="middle" font-size="11">64</text>
<text x="996.00" y="407.00" text-anchor="middle" font-size="12">Rank</text>
<text x="785.00" y="231.00" text-anchor="middle" font-size="12" transform="rotate(-90 785.00 231.00)">Between minus within distance</text>
<line x1="972.00" y1="120.00" x2="992.00" y2="120.00" stroke="#3F7D68" stroke-width="1.8"/>
<polygon points="982.00,115.00 987.00,124.50 977.00,124.50" fill="white" stroke="#3F7D68" stroke-width="1.8"/>
<text x="1002.00" y="124.00" font-size="11">Between minus within</text>
<line x1="842.00" y1="130.13" x2="842.00" y2="154.72" stroke="#3F7D68" stroke-width="1"/>
<line x1="839.00" y1="130.13" x2="845.00" y2="130.13" stroke="#3F7D68" stroke-width="1"/>
<line x1="839.00" y1="154.72" x2="845.00" y2="154.72" stroke="#3F7D68" stroke-width="1"/>
<line x1="893.33" y1="147.17" x2="893.33" y2="168.52" stroke="#3F7D68" stroke-width="1"/>
<line x1="890.33" y1="147.17" x2="896.33" y2="147.17" stroke="#3F7D68" stroke-width="1"/>
<line x1="890.33" y1="168.52" x2="896.33" y2="168.52" stroke="#3F7D68" stroke-width="1"/>
<line x1="944.67" y1="158.47" x2="944.67" y2="176.69" stroke="#3F7D68" stroke-width="1"/>
<line x1="941.67" y1="158.47" x2="947.67" y2="158.47" stroke="#3F7D68" stroke-width="1"/>
<line x1="941.67" y1="176.69" x2="947.67" y2="176.69" stroke="#3F7D68" stroke-width="1"/>
<line x1="996.00" y1="182.68" x2="996.00" y2="196.59" stroke="#3F7D68" stroke-width="1"/>
<line x1="993.00" y1="182.68" x2="999.00" y2="182.68" stroke="#3F7D68" stroke-width="1"/>
<line x1="993.00" y1="196.59" x2="999.00" y2="196.59" stroke="#3F7D68" stroke-width="1"/>
<line x1="1047.33" y1="212.37" x2="1047.33" y2="223.66" stroke="#3F7D68" stroke-width="1"/>
<line x1="1044.33" y1="212.37" x2="1050.33" y2="212.37" stroke="#3F7D68" stroke-width="1"/>
<line x1="1044.33" y1="223.66" x2="1050.33" y2="223.66" stroke="#3F7D68" stroke-width="1"/>
<line x1="1098.67" y1="237.96" x2="1098.67" y2="246.46" stroke="#3F7D68" stroke-width="1"/>
<line x1="1095.67" y1="237.96" x2="1101.67" y2="237.96" stroke="#3F7D68" stroke-width="1"/>
<line x1="1095.67" y1="246.46" x2="1101.67" y2="246.46" stroke="#3F7D68" stroke-width="1"/>
<line x1="1150.00" y1="255.65" x2="1150.00" y2="262.37" stroke="#3F7D68" stroke-width="1"/>
<line x1="1147.00" y1="255.65" x2="1153.00" y2="255.65" stroke="#3F7D68" stroke-width="1"/>
<line x1="1147.00" y1="262.37" x2="1153.00" y2="262.37" stroke="#3F7D68" stroke-width="1"/>
<polyline points="842.00,142.31 893.33,157.65 944.67,167.47 996.00,189.54 1047.33,218.01 1098.67,242.11 1150.00,258.92" fill="none" stroke="#3F7D68" stroke-width="1.8"/>
<polygon points="842.00,137.31 847.00,146.81 837.00,146.81" fill="white" stroke="#3F7D68" stroke-width="1.8"/>
<polygon points="893.33,152.65 898.33,162.15 888.33,162.15" fill="white" stroke="#3F7D68" stroke-width="1.8"/>
<polygon points="944.67,162.47 949.67,171.97 939.67,171.97" fill="white" stroke="#3F7D68" stroke-width="1.8"/>
<polygon points="996.00,184.54 1001.00,194.04 991.00,194.04" fill="white" stroke="#3F7D68" stroke-width="1.8"/>
<polygon points="1047.33,213.01 1052.33,222.51 1042.33,222.51" fill="white" stroke="#3F7D68" stroke-width="1.8"/>
<polygon points="1098.67,237.11 1103.67,246.61 1093.67,246.61" fill="white" stroke="#3F7D68" stroke-width="1.8"/>
<polygon points="1150.00,253.92 1155.00,263.42 1145.00,263.42" fill="white" stroke="#3F7D68" stroke-width="1.8"/>
<text x="590" y="437" text-anchor="middle" font-size="10" fill="#707A86">Exact-bin evaluation; n=255 problems per rank; candidate-level 192-fit/64-held-out 4-fold protocol.</text>
</g>
</svg>
